<?xml version="1.0" encoding="utf-8"?>
<!-- Generator: Adobe Illustrator 23.1.1, SVG Export Plug-In . SVG Version: 6.00 Build 0)  -->
<svg version="1.1" id="Layer_1" xmlns="http://www.w3.org/2000/svg" xmlns:xlink="http://www.w3.org/1999/xlink" x="0px" y="0px"
	 viewBox="0 0 313.3 147.2" style="enable-background:new 0 0 313.3 147.2;" xml:space="preserve">
<style type="text/css">
	.st0{fill:#17162F;}
</style>
<g>
	<path class="st0" d="M7.5,134.5c0-0.1-0.1-1-0.4-2.6s-0.6-3.3-0.9-5.3c-0.3-1.9-0.6-3.7-0.9-5.4S5,118.5,4.9,118
		c-0.1-0.8,0.1-1.3,0.7-1.5c0.6-0.1,1,0,1.3,0.5c0.1,0.2,0.5,0.8,1.2,1.9c0.7,1.1,1.7,2.4,3,4c1.3,1.6,2.8,3.2,4.5,5
		c1.8,1.8,3.7,3.5,5.9,5c2.2,1.5,4.6,2.8,7.2,3.8c2.6,1,5.3,1.5,8.3,1.5c3.4,0,6.1-0.9,8.1-2.8c1.9-1.9,2.9-4.3,2.9-7.4
		c0-1.6-0.2-3.2-0.6-4.8c-0.4-1.6-1.3-3.1-2.7-4.7c-1.4-1.6-3.4-3.1-5.9-4.6c-2.6-1.5-6-3.1-10.3-4.6c-4-1.4-7.3-3-10-4.9
		c-2.7-1.9-4.9-4.1-6.6-6.4C10.2,95.6,9,93,8.2,90.3c-0.8-2.7-1.1-5.6-1.1-8.7c0-2.3,0.4-4.9,1.3-7.7c0.8-2.8,2.4-5.4,4.5-7.8
		c2.2-2.4,5.2-4.5,9-6.1c3.8-1.6,8.6-2.5,14.5-2.5c3.7,0,7.2,0.3,10.3,0.9c3.2,0.6,6,1.3,8.3,2c2.4,0.8,4.3,1.5,5.7,2.1
		c1.4,0.7,2.2,1,2.4,1.1c0.4,0.2,0.6,0.3,0.6,0.4c0.1,0.1,0.1,0.3,0.2,0.6c0,0.1,0.1,0.9,0.4,2.5c0.3,1.5,0.6,3.2,0.9,5
		c0.3,1.8,0.6,3.5,0.9,5c0.3,1.5,0.4,2.3,0.4,2.5c0.1,0.6-0.1,1-0.6,1.3s-1,0.1-1.4-0.5c-0.8-1.2-2.2-2.8-4-4.9c-1.8-2-4-4-6.6-6
		c-2.6-2-5.4-3.7-8.6-5.2c-3.1-1.5-6.5-2.2-10-2.2c-3.7,0-6.5,1-8.2,3c-1.7,2-2.6,4.4-2.6,7.2c0,1.4,0.2,2.8,0.6,4.2
		c0.4,1.3,1.3,2.7,2.7,3.9c1.4,1.3,3.4,2.5,6,3.8c2.6,1.3,6.1,2.6,10.5,3.9c8.8,2.7,15.4,6.4,19.9,11c4.5,4.6,6.8,10.6,6.8,17.9
		c0,3.7-0.6,7.2-1.9,10.3c-1.3,3.2-3.2,5.9-5.9,8.2c-2.6,2.3-6,4.1-10.1,5.4c-4.1,1.3-8.9,2-14.6,2c-4.7,0-9-0.3-12.6-1
		c-3.7-0.7-6.8-1.5-9.4-2.3c-2.6-0.8-4.5-1.6-6-2.4c-1.4-0.7-2.3-1.2-2.5-1.4c-0.1-0.1-0.2-0.3-0.3-0.5
		C7.7,135.1,7.6,134.8,7.5,134.5z"/>
	<path class="st0" d="M195.9,25.2c-0.7-1.7-1.7-3.2-3-4.5c-1.3-1.3-2.8-2.3-4.6-3.1c-1.8-0.7-3.7-1.1-5.9-1.1
		c-2.1,0-4.1,0.4-5.9,1.2c-1.9,0.8-3.5,1.8-4.8,3.2c-1.3,1.3-2.4,2.9-3.2,4.6c-0.8,1.8-1.2,3.6-1.2,5.6c0,2,0.4,3.8,1.1,5.6
		c0.7,1.7,1.7,3.2,3,4.5c1.3,1.3,2.8,2.3,4.6,3s3.7,1.1,5.8,1.1c2.2,0,4.2-0.4,6-1.2c1.8-0.8,3.4-1.8,4.8-3.1
		c1.4-1.3,2.5-2.8,3.2-4.6c0.8-1.8,1.2-3.6,1.2-5.6S196.6,27,195.9,25.2z"/>
	<path class="st0" d="M307.7,129.9c-1.1,1.9-2.5,3.7-4.1,5.3c-1.6,1.6-3.5,3-5.6,4.2c-2.1,1.2-4.4,2.1-6.9,2.7
		c-2.5,0.6-5.1,0.9-7.9,0.9c-3,0-6-0.4-8.9-1.2c-2.9-0.8-5.6-2.2-7.9-4.2c-2.3-2-4.2-4.7-5.7-8.2c-1.5-3.4-2.2-7.8-2.2-13.2V65.7
		c0-0.5-0.2-0.7-0.7-0.7h-2.3c-0.9,0-1.6,0-2-0.1h0c-0.3,0.1-0.5,0.1-0.8,0.1h-15.9c-0.4,0-0.6,0.2-0.6,0.6v60.6
		c0,2.5,0.5,4.4,1.6,5.9s2.2,2.7,3.6,3.5c1.3,0.9,2.7,1.5,4,1.9c1.3,0.4,2.2,0.6,2.7,0.6c0.5,0.1,0.8,0.3,1,0.6
		c0.2,0.3,0.3,0.5,0.2,0.9c-0.1,0.3-0.2,0.6-0.5,0.8c-0.3,0.2-0.6,0.4-1.1,0.4H121.2c-0.5,0-0.9-0.1-1.1-0.4
		c-0.3-0.2-0.4-0.5-0.5-0.8c-0.1-0.3,0-0.6,0.2-0.9c0.2-0.3,0.6-0.5,1-0.6c0.5-0.1,1.3-0.2,2.5-0.6c1.2-0.3,2.4-0.9,3.6-1.7
		c1.2-0.8,2.3-2,3.3-3.4c1-1.5,1.4-3.4,1.4-5.8V87.8c-0.1-2.5-0.3-5.1-0.6-7.8c-0.3-2.7-1-5.1-2.1-7.3c-1-2.2-2.6-4-4.6-5.4
		s-4.7-2.1-8-2.1c-3.5,0-6.2,0.7-8.1,2.1c-1.9,1.4-3.4,3.1-4.3,5.1c-0.9,2-1.5,4.2-1.7,6.5c-0.2,2.3-0.3,4.4-0.3,6.2v41.5
		c0,2.4,0.5,4.3,1.4,5.8c1,1.5,2.1,2.6,3.3,3.4c1.2,0.8,2.4,1.4,3.6,1.7c1.2,0.3,2,0.5,2.5,0.6c0.5,0.1,0.8,0.3,1,0.6
		c0.2,0.3,0.3,0.5,0.2,0.9c-0.1,0.3-0.2,0.6-0.5,0.8c-0.3,0.2-0.6,0.4-1.1,0.4H67.2c-0.5,0-0.9-0.1-1.1-0.4
		c-0.3-0.2-0.4-0.5-0.5-0.8c-0.1-0.3,0-0.6,0.2-0.9c0.2-0.3,0.6-0.5,1-0.6c0.5-0.1,1.3-0.2,2.5-0.6c1.2-0.3,2.4-0.9,3.6-1.7
		c1.2-0.8,2.3-2,3.3-3.4c1-1.5,1.4-3.4,1.4-5.8V25.2c0-0.8-0.4-1.3-1.1-1.4c-0.1,0-0.6-0.1-1.3-0.3s-1.6-0.4-2.6-0.6
		c-1-0.2-1.8-0.5-2.7-0.6s-1.3-0.3-1.5-0.4c-0.8-0.2-1.2-0.6-1.2-1.2c0-0.6,0.4-1.1,1.3-1.3c2.3-0.5,4.9-1.3,7.6-2.2
		c2.7-0.9,5.5-2,8.2-3.1c2.8-1.2,5.4-2.4,8-3.8c2.6-1.3,4.9-2.7,6.9-4.1c0.5-0.4,1.1-0.5,1.7-0.5s0.9,0.5,0.9,1.3v59
		c1.3-1.1,2.7-2.2,4.3-3.3s3.4-2,5.4-2.8c2-0.8,4.3-1.4,6.8-1.9c2.5-0.5,5.2-0.7,8.2-0.7c4.9,0,9,0.5,12.4,1.6
		c3.3,1.1,6.1,2.5,8.3,4.3c2.2,1.8,3.9,3.9,5,6.2c1.2,2.3,2,4.8,2.5,7.3c0.5,2.5,0.8,5,0.9,7.5c0.1,2.5,0.1,4.8,0.1,7v35.2
		c0,2.4,0.5,4.3,1.4,5.8c1,1.5,2.1,2.6,3.3,3.4c0.9,0.6,1.8,1.1,2.8,1.4c0.9-0.3,1.8-0.8,2.7-1.4c1.2-0.8,2.3-2,3.3-3.4
		c1-1.5,1.4-3.4,1.4-5.8v-50c0-0.8-0.4-1.3-1.1-1.4c-0.1,0-0.6-0.1-1.3-0.3s-1.6-0.4-2.6-0.6c-1-0.2-1.9-0.5-2.7-0.6
		s-1.3-0.3-1.5-0.4c-0.8-0.2-1.2-0.6-1.2-1.2c0-0.6,0.4-1.1,1.3-1.3c2.3-0.5,4.9-1.3,7.6-2.2c2.7-0.9,5.5-2,8.2-3.1
		c2.8-1.2,5.4-2.4,8-3.8c2.6-1.3,4.9-2.7,6.9-4.1c0.5-0.4,1.1-0.5,1.7-0.5s0.9,0.5,0.9,1.3v68.2c0,2.4,0.5,4.3,1.4,5.8
		c1,1.5,2,2.6,3.3,3.4c1,0.7,2,1.2,3,1.5c1.2-0.4,2.3-0.9,3.5-1.7c1.3-0.9,2.5-2,3.6-3.5c1.1-1.5,1.6-3.5,1.6-5.9V65.7
		c0-0.5-0.2-0.7-0.6-0.7h-2.7c-1.4,0-2.3-0.1-2.7-0.3c-0.3-0.2-0.5-0.6-0.5-1.2c0-0.8,0.3-1.6,1-2.5s1.5-1.3,2.6-1.3h2.2
		c0.4,0,0.6-0.2,0.6-0.7c0-6.2,0.1-11.4,0.3-15.8s0.6-8,1.1-11.2s1.3-5.8,2.2-8c0.9-2.2,2-4.3,3.4-6.3c1.6-2.2,3.5-4.1,5.7-5.6
		s4.6-2.7,7.1-3.6c2.5-0.9,5.1-1.5,7.8-1.9s5.4-0.5,8.1-0.5c3.5,0,6.7,0.4,9.6,1.2s5.5,1.9,7.6,3.3s3.8,3,5,4.9s1.8,3.8,1.8,5.9
		c0,3.1-0.9,5.7-2.8,7.7c-1.9,2-4.4,3.1-7.7,3.1s-5.8-0.9-7.8-2.8c-2-1.9-3-4.4-3-7.7c0-0.8,0-1.9,0.1-3.2c0.1-1.3,0-2.5-0.2-3.7
		c-0.2-1.2-0.6-2.2-1.2-3.1c-0.6-0.9-1.6-1.3-2.9-1.3c-2.1,0-3.8,0.8-5.1,2.3c-1.3,1.6-2.3,3.7-3.1,6.5c-0.7,2.8-1.2,6.1-1.5,10
		c-0.3,3.9-0.4,8.1-0.4,12.6V59c0,0.5,0.2,0.7,0.7,0.7h16.6c0.8,0,1.4,0,1.8,0.1h0c0.2-0.1,0.5-0.1,0.7-0.1h2c0.4,0,0.6-0.2,0.6-0.7
		V37.5c0-1.3,0.5-2.1,1.6-2.2c1.5-0.3,3.1-0.7,4.8-1.2c1.7-0.5,3.5-1.1,5.2-1.8c1.8-0.7,3.5-1.4,5.2-2.3c1.7-0.8,3.3-1.7,4.7-2.6
		c0.7-0.4,1.3-0.4,1.8-0.2c0.6,0.2,0.9,0.8,0.9,1.8v30.1c0,0.4,0.2,0.6,0.7,0.6h16.9c1.4,0,2.3,0.1,2.7,0.3c0.3,0.2,0.5,0.6,0.5,1.2
		c0,0.8-0.4,1.6-1.3,2.5c-0.8,0.9-1.8,1.3-2.8,1.3h-16.1c-0.4,0-0.6,0.2-0.6,0.6v55.4c0,1.6,0.3,3,0.9,4.3s1.3,2.3,2.2,3.1
		c0.9,0.9,2,1.5,3.2,1.9s2.5,0.6,3.7,0.6c2.6,0,5-0.4,7.2-1.1c2.2-0.8,4-1.5,5.2-2.1c1.1-0.5,1.9-0.5,2.3,0.2
		C308.1,128.5,308.1,129.2,307.7,129.9z"/>
</g>
</svg>
